<svg xmlns="http://www.w3.org/2000/svg" viewBox="0 0 800 500" role="img" aria-label="SuperSplash Backgammon Blitz cover">
  <defs>
    <linearGradient id="bg" x1="0" y1="0" x2="1" y2="1">
      <stop offset="0%" stop-color="#0b102b"/>
      <stop offset="45%" stop-color="#2d125a"/>
      <stop offset="100%" stop-color="#14061f"/>
    </linearGradient>
    <linearGradient id="board" x1="0" y1="0" x2="1" y2="1">
      <stop offset="0%" stop-color="#ff5ea2"/>
      <stop offset="100%" stop-color="#53e5ff"/>
    </linearGradient>
    <filter id="glow" x="-40%" y="-40%" width="180%" height="180%">
      <feGaussianBlur stdDeviation="6" result="blur"/>
      <feMerge>
        <feMergeNode in="blur"/>
        <feMergeNode in="SourceGraphic"/>
      </feMerge>
    </filter>
  </defs>
  <rect width="800" height="500" fill="url(#bg)"/>
  <g filter="url(#glow)">
    <rect x="96" y="70" width="608" height="360" rx="24" fill="#1a0933" stroke="url(#board)" stroke-width="8"/>
    <rect x="386" y="78" width="28" height="344" rx="10" fill="#120424" stroke="#8ff3ff" stroke-width="2"/>
    <g fill="#fca7d8">
      <path d="M118 408h36l-18-138z"/><path d="M168 408h36l-18-126z"/><path d="M218 408h36l-18-148z"/><path d="M268 408h36l-18-132z"/><path d="M318 408h36l-18-140z"/><path d="M350 408h28l-14-122z"/>
    </g>
    <g fill="#90f3ff">
      <path d="M422 92h28l-14 122z"/><path d="M446 92h36l-18 140z"/><path d="M496 92h36l-18 132z"/><path d="M546 92h36l-18 148z"/><path d="M596 92h36l-18 126z"/><path d="M646 92h36l-18 138z"/>
    </g>
  </g>
  <g transform="translate(150 132) rotate(-8)">
    <rect width="96" height="96" rx="16" fill="#ffffff"/>
    <circle cx="28" cy="28" r="8" fill="#1a1140"/>
    <circle cx="68" cy="28" r="8" fill="#1a1140"/>
    <circle cx="28" cy="68" r="8" fill="#1a1140"/>
    <circle cx="68" cy="68" r="8" fill="#1a1140"/>
  </g>
  <g transform="translate(560 260) rotate(12)">
    <rect width="96" height="96" rx="16" fill="#ffffff"/>
    <circle cx="48" cy="48" r="8" fill="#1a1140"/>
    <circle cx="28" cy="28" r="8" fill="#1a1140"/>
    <circle cx="68" cy="28" r="8" fill="#1a1140"/>
    <circle cx="28" cy="68" r="8" fill="#1a1140"/>
    <circle cx="68" cy="68" r="8" fill="#1a1140"/>
  </g>
  <text x="400" y="252" fill="#ffffff" text-anchor="middle" font-size="56" font-family="Inter, Arial, sans-serif" font-weight="800">NEON BACKGAMMON</text>
  <text x="400" y="302" fill="#8df4ff" text-anchor="middle" font-size="34" font-family="Inter, Arial, sans-serif" font-weight="700">BLITZ</text>
</svg>
