<svg xmlns="http://www.w3.org/2000/svg" viewBox="0 0 1600 900" role="img" aria-labelledby="title desc">
  <title id="title">Spider Simulator swarm visual</title>
  <desc id="desc">A stylized Spider Simulator panel showing city districts under swarm pressure.</desc>
  <defs>
    <linearGradient id="bg" x1="0%" y1="0%" x2="100%" y2="100%">
      <stop offset="0%" stop-color="#0a1018"/>
      <stop offset="60%" stop-color="#131f2f"/>
      <stop offset="100%" stop-color="#1f170d"/>
    </linearGradient>
    <filter id="soft" x="-20%" y="-20%" width="140%" height="140%">
      <feGaussianBlur stdDeviation="10" result="blur"/>
      <feMerge>
        <feMergeNode in="blur"/>
        <feMergeNode in="SourceGraphic"/>
      </feMerge>
    </filter>
  </defs>
  <rect width="1600" height="900" fill="url(#bg)"/>
  <rect x="120" y="180" width="1360" height="600" rx="28" fill="#101722" stroke="#294867" stroke-width="6"/>
  <g stroke="#24374d" stroke-width="10">
    <line x1="120" y1="380" x2="1480" y2="380"/>
    <line x1="120" y1="580" x2="1480" y2="580"/>
    <line x1="420" y1="180" x2="420" y2="780"/>
    <line x1="780" y1="180" x2="780" y2="780"/>
    <line x1="1140" y1="180" x2="1140" y2="780"/>
  </g>
  <g fill="#c8e7ff" opacity="0.16">
    <rect x="188" y="250" width="118" height="84" rx="10"/>
    <rect x="866" y="244" width="132" height="90" rx="10"/>
    <rect x="1220" y="446" width="148" height="96" rx="10"/>
    <rect x="540" y="640" width="126" height="88" rx="10"/>
  </g>
  <g fill="#f2c25e" filter="url(#soft)">
    <path d="M292 286l44 44-44 44-44-44z"/>
    <path d="M652 486l44 44-44 44-44-44z"/>
    <path d="M1024 304l44 44-44 44-44-44z"/>
    <path d="M1316 630l44 44-44 44-44-44z"/>
  </g>
  <g fill="#f2c25e" opacity="0.92">
    <path d="M336 330l34 34"/>
    <path d="M696 530l34 34"/>
    <path d="M1068 348l34 34"/>
    <path d="M1360 674l34 34"/>
  </g>
  <g fill="#ff7d44">
    <circle cx="534" cy="314" r="10"/>
    <circle cx="568" cy="328" r="8"/>
    <circle cx="600" cy="342" r="11"/>
    <circle cx="636" cy="356" r="9"/>
    <circle cx="888" cy="514" r="10"/>
    <circle cx="922" cy="532" r="8"/>
    <circle cx="952" cy="548" r="11"/>
    <circle cx="986" cy="566" r="9"/>
    <circle cx="1196" cy="250" r="10"/>
    <circle cx="1232" cy="274" r="8"/>
    <circle cx="1258" cy="298" r="11"/>
    <circle cx="1296" cy="320" r="9"/>
    <circle cx="304" cy="610" r="10"/>
    <circle cx="336" cy="632" r="8"/>
    <circle cx="366" cy="658" r="11"/>
    <circle cx="396" cy="684" r="9"/>
  </g>
  <g fill="#eefbff" font-family="Oxanium, Arial, sans-serif">
    <text x="120" y="104" font-size="34" font-weight="700" letter-spacing="5">SWARM PRESSURE //</text>
    <text x="120" y="170" font-size="86" font-weight="800">DISTRICTS UNDER SIEGE</text>
    <text x="124" y="228" font-size="28" font-weight="600" letter-spacing="3" opacity="0.86">BUGS, FLIES, BIRDS, AND MITES HIT MULTIPLE BLOCKS AT ONCE</text>
  </g>
</svg>
