<svg xmlns="http://www.w3.org/2000/svg" viewBox="0 0 640 480" role="img" aria-labelledby="title desc">
  <title id="title">Astral Dominion cover art</title>
  <desc id="desc">A neon strategy battlefield with glowing tactical pieces and a radiant crown in the center.</desc>
  <defs>
    <linearGradient id="bg" x1="0" y1="0" x2="1" y2="1">
      <stop offset="0%" stop-color="#07111f"/>
      <stop offset="100%" stop-color="#14284b"/>
    </linearGradient>
    <radialGradient id="glow" cx="50%" cy="45%" r="50%">
      <stop offset="0%" stop-color="#fff7b8"/>
      <stop offset="65%" stop-color="#ffd84d"/>
      <stop offset="100%" stop-color="#ff9f43"/>
    </radialGradient>
  </defs>
  <rect width="640" height="480" fill="url(#bg)"/>
  <g opacity="0.2" stroke="#9ed8ff">
    <path d="M80 120H560"/>
    <path d="M80 180H560"/>
    <path d="M80 240H560"/>
    <path d="M80 300H560"/>
    <path d="M80 360H560"/>
    <path d="M140 90V390"/>
    <path d="M220 90V390"/>
    <path d="M300 90V390"/>
    <path d="M380 90V390"/>
    <path d="M460 90V390"/>
    <path d="M540 90V390"/>
  </g>
  <rect x="154" y="114" width="332" height="220" rx="26" fill="rgba(4,17,31,0.72)" stroke="rgba(158,216,255,0.45)"/>
  <g opacity="0.3">
    <rect x="184" y="144" width="60" height="60" fill="#173056"/>
    <rect x="244" y="144" width="60" height="60" fill="#0c1d35"/>
    <rect x="304" y="144" width="60" height="60" fill="#173056"/>
    <rect x="364" y="144" width="60" height="60" fill="#0c1d35"/>
    <rect x="184" y="204" width="60" height="60" fill="#0c1d35"/>
    <rect x="244" y="204" width="60" height="60" fill="#173056"/>
    <rect x="304" y="204" width="60" height="60" fill="#0c1d35"/>
    <rect x="364" y="204" width="60" height="60" fill="#173056"/>
  </g>
  <path d="M320 146l14 26 28-18 10 30 34 4-22 24 14 30-32-8-18 28-18-28-32 8 14-30-22-24 34-4 10-30 28 18z" fill="url(#glow)"/>
  <circle cx="222" cy="276" r="24" fill="#4dabf7"/>
  <circle cx="418" cy="274" r="24" fill="#ff7c57"/>
  <circle cx="270" cy="214" r="18" fill="#c8f4ff"/>
  <circle cx="370" cy="214" r="18" fill="#ffcfbd"/>
  <text x="320" y="430" fill="#edf4ff" text-anchor="middle" font-family="Arial, sans-serif" font-size="40" font-weight="700">ASTRAL DOMINION</text>
</svg>
