<svg xmlns="http://www.w3.org/2000/svg" viewBox="0 0 640 480" role="img" aria-labelledby="title desc">
  <title id="title">Neon Crown Chess cover art</title>
  <desc id="desc">A glowing chessboard with luminous white and black royalty pieces facing off in a neon arcade atmosphere.</desc>
  <defs>
    <linearGradient id="bg" x1="0" y1="0" x2="1" y2="1">
      <stop offset="0%" stop-color="#081320"/>
      <stop offset="100%" stop-color="#17314a"/>
    </linearGradient>
    <linearGradient id="whitePiece" x1="0" y1="0" x2="0" y2="1">
      <stop offset="0%" stop-color="#fff7df"/>
      <stop offset="100%" stop-color="#ebdca8"/>
    </linearGradient>
    <linearGradient id="blackPiece" x1="0" y1="0" x2="0" y2="1">
      <stop offset="0%" stop-color="#334b64"/>
      <stop offset="100%" stop-color="#101b27"/>
    </linearGradient>
  </defs>
  <rect width="640" height="480" fill="url(#bg)"/>
  <circle cx="140" cy="90" r="110" fill="#6ee7c8" opacity="0.15"/>
  <circle cx="530" cy="90" r="90" fill="#ff9f6e" opacity="0.14"/>
  <g transform="translate(152 96)">
    <rect width="336" height="256" rx="28" fill="#09131f" stroke="rgba(255,255,255,0.2)"/>
    <g opacity="0.92">
      <rect x="24" y="24" width="36" height="36" fill="#eadfc5"/>
      <rect x="60" y="24" width="36" height="36" fill="#597989"/>
      <rect x="96" y="24" width="36" height="36" fill="#eadfc5"/>
      <rect x="132" y="24" width="36" height="36" fill="#597989"/>
      <rect x="168" y="24" width="36" height="36" fill="#eadfc5"/>
      <rect x="204" y="24" width="36" height="36" fill="#597989"/>
      <rect x="240" y="24" width="36" height="36" fill="#eadfc5"/>
      <rect x="276" y="24" width="36" height="36" fill="#597989"/>
      <rect x="24" y="60" width="36" height="36" fill="#597989"/>
      <rect x="60" y="60" width="36" height="36" fill="#eadfc5"/>
      <rect x="96" y="60" width="36" height="36" fill="#597989"/>
      <rect x="132" y="60" width="36" height="36" fill="#eadfc5"/>
      <rect x="168" y="60" width="36" height="36" fill="#597989"/>
      <rect x="204" y="60" width="36" height="36" fill="#eadfc5"/>
      <rect x="240" y="60" width="36" height="36" fill="#597989"/>
      <rect x="276" y="60" width="36" height="36" fill="#eadfc5"/>
      <rect x="24" y="96" width="36" height="36" fill="#eadfc5"/>
      <rect x="60" y="96" width="36" height="36" fill="#597989"/>
      <rect x="96" y="96" width="36" height="36" fill="#eadfc5"/>
      <rect x="132" y="96" width="36" height="36" fill="#597989"/>
      <rect x="168" y="96" width="36" height="36" fill="#eadfc5"/>
      <rect x="204" y="96" width="36" height="36" fill="#597989"/>
      <rect x="240" y="96" width="36" height="36" fill="#eadfc5"/>
      <rect x="276" y="96" width="36" height="36" fill="#597989"/>
      <rect x="24" y="132" width="36" height="36" fill="#597989"/>
      <rect x="60" y="132" width="36" height="36" fill="#eadfc5"/>
      <rect x="96" y="132" width="36" height="36" fill="#597989"/>
      <rect x="132" y="132" width="36" height="36" fill="#eadfc5"/>
      <rect x="168" y="132" width="36" height="36" fill="#597989"/>
      <rect x="204" y="132" width="36" height="36" fill="#eadfc5"/>
      <rect x="240" y="132" width="36" height="36" fill="#597989"/>
      <rect x="276" y="132" width="36" height="36" fill="#eadfc5"/>
      <rect x="24" y="168" width="36" height="36" fill="#eadfc5"/>
      <rect x="60" y="168" width="36" height="36" fill="#597989"/>
      <rect x="96" y="168" width="36" height="36" fill="#eadfc5"/>
      <rect x="132" y="168" width="36" height="36" fill="#597989"/>
      <rect x="168" y="168" width="36" height="36" fill="#eadfc5"/>
      <rect x="204" y="168" width="36" height="36" fill="#597989"/>
      <rect x="240" y="168" width="36" height="36" fill="#eadfc5"/>
      <rect x="276" y="168" width="36" height="36" fill="#597989"/>
      <rect x="24" y="204" width="36" height="36" fill="#597989"/>
      <rect x="60" y="204" width="36" height="36" fill="#eadfc5"/>
      <rect x="96" y="204" width="36" height="36" fill="#597989"/>
      <rect x="132" y="204" width="36" height="36" fill="#eadfc5"/>
      <rect x="168" y="204" width="36" height="36" fill="#597989"/>
      <rect x="204" y="204" width="36" height="36" fill="#eadfc5"/>
      <rect x="240" y="204" width="36" height="36" fill="#597989"/>
      <rect x="276" y="204" width="36" height="36" fill="#eadfc5"/>
    </g>
    <g transform="translate(92 30)">
      <path d="M58 20c8 0 14 6 14 14 0 5-2 9-6 12l10 24H38l10-24c-4-3-6-7-6-12 0-8 6-14 16-14z" fill="url(#blackPiece)"/>
      <path d="M46 70h24l10 76H36z" fill="url(#blackPiece)"/>
      <rect x="30" y="146" width="52" height="18" rx="6" fill="url(#blackPiece)"/>
      <path d="M170 0l7 18 20-2-13 15 8 18-19-7-11 17-11-17-19 7 8-18-13-15 20 2 7-18z" fill="url(#whitePiece)"/>
      <rect x="150" y="54" width="24" height="72" rx="10" fill="url(#whitePiece)"/>
      <rect x="138" y="124" width="48" height="18" rx="7" fill="url(#whitePiece)"/>
      <circle cx="60" cy="170" r="36" fill="#6ee7c8" opacity="0.18"/>
      <circle cx="160" cy="150" r="44" fill="#ff9f6e" opacity="0.18"/>
    </g>
  </g>
  <text x="320" y="430" fill="#edf5ff" text-anchor="middle" font-family="Georgia, serif" font-size="38" font-weight="700">NEON CROWN CHESS</text>
</svg>
